<svg xmlns="http://www.w3.org/2000/svg" xmlns:xlink="http://www.w3.org/1999/xlink" viewBox="0 0 380.976 249.115">
  <defs>
    <style>
      .cls-1 {
        fill: url(#linear-gradient);
      }
    </style>
    <linearGradient id="linear-gradient" x1="0.388" y1="-0.15" x2="0.597" y2="1" gradientUnits="objectBoundingBox">
      <stop offset="0" stop-color="#fb0" stop-opacity="0.949"/>
      <stop offset="0.532" stop-color="#ffcd09"/>
      <stop offset="1" stop-color="#feef19"/>
    </linearGradient>
  </defs>
  <path id="Union_4" data-name="Union 4" class="cls-1" d="M211.545,193.2a100.982,100.982,0,0,1-18.639-23.986A114.644,114.644,0,0,0,205.79,53.618a100.511,100.511,0,1,1,50.1,164.014l-47.7,31.484Zm18.831-39.662c0,12.663,22.474,34.667,50.214,34.667s50.2-21.983,50.193-34.667c0-12.654-22.464.541-50.193.541-18.75,0-35.093-6.033-43.718-6.033C232.736,148.042,230.376,149.429,230.376,153.534Zm-9.25-48.512A18.024,18.024,0,1,0,239.145,87,18.021,18.021,0,0,0,221.126,105.022Zm118.857,1.711q.08-.845.08-1.711a18.027,18.027,0,0,0-35.22-5.412,28.744,28.744,0,0,1,4.9-2.8,24.758,24.758,0,0,1,9.976-2.106C326.9,94.7,334.66,97.893,339.982,106.733ZM125.094,197.62a100.456,100.456,0,1,1,44.337-24.436l3.353,55.92ZM50.2,133.512c0,12.664,22.464,34.667,50.193,34.667s50.194-21.983,50.2-34.667c0-12.653-22.474.541-50.2.541-18.743,0-35.078-6.033-43.7-6.033C52.564,128.021,50.2,129.407,50.2,133.512ZM123.822,85a18.019,18.019,0,1,0,18.019-18.019A18.02,18.02,0,0,0,123.822,85ZM40.934,85A18.019,18.019,0,1,0,58.953,66.982,18.02,18.02,0,0,0,40.934,85Z"/>
</svg>
